<svg width="96" height="96" viewBox="0 0 96 96" fill="none" xmlns="http://www.w3.org/2000/svg">
<path d="M56.4481 14.7831L58.768 28.5627C59.1139 30.6174 60.9793 32.0625 63.0553 31.8839L76.9773 30.6865L68.8741 42.0705C67.6658 43.768 67.963 46.1088 69.5572 47.4505L80.2483 56.4482L66.4688 58.768C64.414 59.114 62.969 60.9793 63.1476 63.0553L64.345 76.9774L52.961 68.8741C51.2635 67.6658 48.9227 67.963 47.581 69.5573L38.5833 80.2484L36.2634 66.4688C35.9175 64.4141 34.0522 62.969 31.9762 63.1476L18.0541 64.345L26.1573 52.961C27.3656 51.2635 27.0684 48.9227 25.4742 47.581L14.7831 38.5833L28.5627 36.2635C30.6174 35.9175 32.0624 34.0522 31.8839 31.9762L30.6864 18.0541L42.0704 26.1573C43.768 27.3657 46.1088 27.0684 47.4505 25.4742L56.4481 14.7831Z" stroke="#1E4B75" stroke-width="4"/>
<path d="M37.478 56.825L55.9456 38.3574" stroke="#1E4B75" stroke-width="4" stroke-linecap="round"/>
<circle cx="54.551" cy="54.551" r="3.27645" stroke="#1E4B75" stroke-width="4"/>
<circle cx="37.8423" cy="41.3599" r="3.27645" stroke="#1E4B75" stroke-width="4"/>
</svg>
